# xmcd
#
# Track frame offsets:
#	150
#	10659
#	26932
#	41694
#	57651
#	73007
#	88174
#	101055
#	114687
#	129251
#	146654
#	161523
#
# Disc length: 2427 seconds
#
# Revision: 0
# Processed by: cddbd v1.5.1PL2 Copyright (c) Steve Scherf et al.
# Submitted via: dBpowerAMP V4.0
#
DISCID=ab09790c
DTITLE=金樂峰 - 懷舊扁
DYEAR=1900
DGENRE=
TTITLE0=郊道
TTITLE1=第二春
TTITLE2=玫瑰玫瑰我愛妳
TTITLE3=午夜香吻
TTITLE4=往事只能回味
TTITLE5=春風吻上我的瞼
TTITLE6=何必相逢
TTITLE7=今天不回家
TTITLE8=負心的人
TTITLE9=淚的小雨
TTITLE10=難忘初戀情人
TTITLE11=意難忘
EXTD=
EXTT0=
EXTT1=
EXTT2=
EXTT3=
EXTT4=
EXTT5=
EXTT6=
EXTT7=
EXTT8=
EXTT9=
EXTT10=
EXTT11=
PLAYORDER=
